# xmcd
#
# Track frame offsets:
#	150
#	10217
#	16664
#	22306
#	28428
#	33653
#	39531
#	45440
#	51426
#	58443
#	64421
#	69311
#	74612
#	80714
#	88394
#	96549
#	102591
#	107957
#	114361
#	119990
#	126307
#	133427
#	139443
#	146771
#	152563
#	158958
#	164898
#	170510
#	176453
#	183964
#	189988
#	197503
#	204451
#	210062
#	215999
#	221666
#	227358
#	232586
#	238330
#	246892
#	253102
#	259367
#	265758
#	271201
#	277513
#	283160
#	289477
#	295487
#	301617
#	307677
#	313791
#
# Disc length: 4235 seconds
#
# Revision: 0
# Processed by: cddbd v1.5.2PL0 Copyright (c) Steve Scherf et al.
# Submitted via: audiograbber 1.83.01
#
DISCID=2b108933
DTITLE=Lang Elliot - The Songs of Wild Birds
DYEAR=1900
DGENRE=
TTITLE0=Common Loon
TTITLE1=Pie-billed Grebe
TTITLE2=American Bittern
TTITLE3=Bald Eagle and Re-tailed Hawk
TTITLE4=Ruffed Grouse
TTITLE5=Wild Turkey
TTITLE6=Virginia Rail
TTITLE7=Sandhill Crane
TTITLE8=American Woodcock
TTITLE9=Common Snipe
TTITLE10=Atlantic Puffin
TTITLE11=Mourning Dove
TTITLE12=Great Horned Owl
TTITLE13=Barred Owl
TTITLE14=Eastern Screech-Owl
TTITLE15=Common Nighthawk
TTITLE16=Whip-poor-will and Chuck-will's-widow
TTITLE17=Pileated and Ivory-billed Woodpeckers
TTITLE18=Yellow-bellied Sapsucker
TTITLE19=Eastern Wood-Pewee
TTITLE20=Willow Flycatcher
TTITLE21=Red-eyed Vireo
TTITLE22=Blue Jay
TTITLE23=Common Raven
TTITLE24=Carolina Wren
TTITLE25=Winter Wren
TTITLE26=Blue-gray Gnatcatcher
TTITLE27=Eastern Bluebird
TTITLE28=American Robin
TTITLE29=Wood Thrush
TTITLE30=Hernit and Swainson's Thrushes
TTITLE31=Thrush Flight Calls
TTITLE32=Northern Mockingbird
TTITLE33=European Starling
TTITLE34=Black-throated Green Warbler
TTITLE35=Ovenbird
TTITLE36=Summer Tanager
TTITLE37=Scarelt Tanager
TTITLE38=Northern Cardinal
TTITLE39=Rose-breasted Grosbeak
TTITLE40=Grasshopper Sparrow
TTITLE41=Henslow's Sparrow
TTITLE42=White-crowned Sparrow
TTITLE43=Bobolink
TTITLE44=Brown-headed Cowbird
TTITLE45=Red-winged Blackbird
TTITLE46=Eastern and Western Meadowlarks
TTITLE47=Baltimore Oriole
TTITLE48=American Goldfinch
TTITLE49=House Finch
TTITLE50=Birdsong Goodbye
EXTD=
EXTT0=
EXTT1=
EXTT2=
EXTT3=
EXTT4=
EXTT5=
EXTT6=
EXTT7=
EXTT8=
EXTT9=
EXTT10=
EXTT11=
EXTT12=
EXTT13=
EXTT14=
EXTT15=
EXTT16=
EXTT17=
EXTT18=
EXTT19=
EXTT20=
EXTT21=
EXTT22=
EXTT23=
EXTT24=
EXTT25=
EXTT26=
EXTT27=
EXTT28=
EXTT29=
EXTT30=
EXTT31=
EXTT32=
EXTT33=
EXTT34=
EXTT35=
EXTT36=
EXTT37=
EXTT38=
EXTT39=
EXTT40=
EXTT41=
EXTT42=
EXTT43=
EXTT44=
EXTT45=
EXTT46=
EXTT47=
EXTT48=
EXTT49=
EXTT50=
PLAYORDER=
